<svg width="94" height="82" viewBox="0 0 94 82" version="1.1" xmlns="http://www.w3.org/2000/svg" xmlns:xlink="http://www.w3.org/1999/xlink">
<title>Group</title>
<desc>Created using Figma</desc>
<g id="Canvas" transform="translate(1595 -1642)">
<g id="Group">
<g id="Vector">
<use xlink:href="#path0_fill" transform="translate(-1580.48 1656.91)" fill="#13988A"/>
</g>
<g id="Vector">
<use xlink:href="#path1_fill" transform="translate(-1595 1642)" fill="#13988A"/>
</g>
</g>
</g>
<defs>
<path id="path0_fill" d="M 60.4661 5.47643C 58.5349 5.47643 56.8364 6.43765 55.7793 7.90279L 48.7414 7.97047L 44.7116 1.49734C 44.091 0.505181 43.0184 -0.0741448 41.8206 0.00764903C 40.6593 0.0832552 39.6328 0.794843 39.1464 1.86242L 29.127 23.8425L 26.4812 16.4834C 26.0223 15.2186 24.8367 14.3775 23.5016 14.3775L 10.5669 14.3775C 9.51869 12.8632 7.77965 11.8664 5.80933 11.8664C 2.60108 11.8664 6.5549e-07 14.4885 6.5549e-07 17.7235C 6.5549e-07 20.96 2.60108 23.5821 5.80933 23.5821C 7.90872 23.5821 9.72926 22.4497 10.7501 20.7674L 21.2802 20.7674L 25.8025 33.3397C 26.2421 34.5583 27.3676 35.3902 28.651 35.4424C 28.6938 35.4441 28.7363 35.4457 28.7822 35.4457C 30.0136 35.4457 31.1441 34.7215 31.66 33.5847L 42.4588 9.89794L 44.3198 12.8818C 44.9042 13.8231 46.0347 14.3823 47.0338 14.3777L 55.479 14.2961C 56.4906 16.0213 58.3336 17.1921 60.4663 17.1921C 63.6748 17.1921 66.2782 14.5701 66.2782 11.335C 66.2778 8.09848 63.6746 5.47643 60.4661 5.47643Z"/>
<path id="path1_fill" d="M 86.2008 -3.54064e-08L 7.79806 -3.54064e-08C 3.49534 -3.54064e-08 0 3.52796 0 7.8642L 0 54.0549C 0 58.3915 3.49534 61.9191 7.79806 61.9191L 33.5333 61.9191L 33.5333 66.8012C 28.5764 67.3419 24.6904 71.5383 24.6904 76.6774L 24.6904 79.6044C 24.6904 80.9278 25.7536 82 27.0644 82L 66.9354 82C 68.2462 82 69.3096 80.9278 69.3096 79.6044L 69.3096 76.6774C 69.3096 71.5383 65.4221 67.3419 60.4665 66.8012L 60.4665 61.9191L 86.201 61.9191C 90.5035 61.9191 94 58.3915 94 54.0549L 94 7.8642C 93.9998 3.52796 90.5033 -3.54064e-08 86.2008 -3.54064e-08ZM 64.5573 76.6774L 64.5573 77.2088L 29.4417 77.2088L 29.4417 76.6774C 29.4417 73.815 31.7486 71.4855 34.5907 71.4855L 59.4093 71.4855C 62.2504 71.4857 64.5573 73.8152 64.5573 76.6774ZM 87.6621 54.0549C 87.6621 54.8684 87.0078 55.5291 86.2008 55.5291L 7.79806 55.5291C 6.99106 55.5291 6.33768 54.8684 6.33768 54.0549L 6.33768 7.8642C 6.33768 7.0509 6.99106 6.39017 7.79806 6.39017L 86.2008 6.39017C 87.0078 6.39017 87.6621 7.0509 87.6621 7.8642L 87.6621 54.0549Z"/>
</defs>
</svg>
