<svg width="88" height="88" viewBox="0 0 88 88" version="1.1" xmlns="http://www.w3.org/2000/svg" xmlns:xlink="http://www.w3.org/1999/xlink">
<title>Group</title>
<desc>Created using Figma</desc>
<g id="Canvas" transform="translate(1589 -2322)">
<g id="Group">
<g id="Vector">
<use xlink:href="#path0_fill" transform="translate(-1589 2322)" fill="#13988A"/>
</g>
<g id="Vector">
<use xlink:href="#path1_fill" transform="translate(-1562.6 2343.82)" fill="#13988A"/>
</g>
<g id="Vector">
<use xlink:href="#path2_fill" transform="translate(-1546.47 2332.09)" fill="#13988A"/>
</g>
<g id="Vector">
<use xlink:href="#path3_fill" transform="translate(-1546.47 2395.16)" fill="#13988A"/>
</g>
<g id="Vector">
<use xlink:href="#path4_fill" transform="translate(-1515.67 2364.36)" fill="#13988A"/>
</g>
<g id="Vector">
<use xlink:href="#path4_fill" transform="translate(-1578.73 2364.36)" fill="#13988A"/>
</g>
<g id="Vector">
<use xlink:href="#path5_fill" transform="translate(-1524.69 2341.54)" fill="#13988A"/>
</g>
<g id="Vector">
<use xlink:href="#path6_fill" transform="translate(-1569.28 2386.13)" fill="#13988A"/>
</g>
<g id="Vector">
<use xlink:href="#path7_fill" transform="translate(-1524.69 2386.13)" fill="#13988A"/>
</g>
<g id="Vector">
<use xlink:href="#path8_fill" transform="translate(-1569.28 2341.54)" fill="#13988A"/>
</g>
</g>
</g>
<defs>
<path id="path0_fill" d="M 44 0C 19.7384 0 0 19.7384 0 44C 0 68.2616 19.7384 88 44 88C 68.2616 88 88 68.2616 88 44C 88 19.7384 68.2616 0 44 0ZM 44 85.0667C 21.3561 85.0667 2.93333 66.6439 2.93333 44C 2.93333 21.3561 21.3561 2.93333 44 2.93333C 66.6439 2.93333 85.0667 21.3561 85.0667 44C 85.0667 66.6439 66.6439 85.0667 44 85.0667Z"/>
<path id="path1_fill" d="M 19.0667 16.3416L 19.0667 1.46667C 19.0667 0.6556 18.4096 -4.25212e-07 17.6 -4.25212e-07C 16.7904 -4.25212e-07 16.1333 0.6556 16.1333 1.46667L 16.1333 16.3416C 14.0815 16.8755 12.4755 18.4815 11.9416 20.5333L 1.46667 20.5333C 0.657067 20.5333 0 21.1889 0 22C 0 22.8111 0.657067 23.4667 1.46667 23.4667L 11.9416 23.4667C 12.5972 25.9893 14.8749 27.8667 17.6 27.8667C 20.8355 27.8667 23.4667 25.2355 23.4667 22C 23.4667 19.2735 21.5893 16.9972 19.0667 16.3416ZM 17.6 24.9333C 15.9823 24.9333 14.6667 23.6177 14.6667 22C 14.6667 20.3823 15.9823 19.0667 17.6 19.0667C 19.2177 19.0667 20.5333 20.3823 20.5333 22C 20.5333 23.6177 19.2177 24.9333 17.6 24.9333Z"/>
<path id="path2_fill" d="M 1.46667 4.4C 2.27627 4.4 2.93333 3.7444 2.93333 2.93333L 2.93333 1.46667C 2.93333 0.6556 2.27627 2.7415e-07 1.46667 2.7415e-07C 0.657067 2.7415e-07 0 0.6556 0 1.46667L 0 2.93333C 0 3.7444 0.657067 4.4 1.46667 4.4Z"/>
<path id="path3_fill" d="M 1.46667 2.37223e-06C 0.657067 2.37223e-06 0 0.655603 0 1.46667L 0 2.93334C 0 3.7444 0.657067 4.4 1.46667 4.4C 2.27627 4.4 2.93333 3.7444 2.93333 2.93334L 2.93333 1.46667C 2.93333 0.655603 2.27627 2.37223e-06 1.46667 2.37223e-06Z"/>
<path id="path4_fill" d="M 2.93333 -4.25212e-07L 1.46667 -4.25212e-07C 0.657067 -4.25212e-07 0 0.6556 0 1.46667C 0 2.27773 0.657067 2.93333 1.46667 2.93333L 2.93333 2.93333C 3.74293 2.93333 4.4 2.27773 4.4 1.46667C 4.4 0.6556 3.74293 -4.25212e-07 2.93333 -4.25212e-07Z"/>
<path id="path5_fill" d="M 1.46703 0.42955L 0.430097 1.46648C -0.143369 2.03995 -0.143369 2.96688 0.430097 3.54035C 0.716097 3.82635 1.09157 3.97008 1.46703 3.97008C 1.8425 3.97008 2.21797 3.82635 2.50397 3.54035L 3.5409 2.50342C 4.11437 1.92995 4.11437 1.00302 3.5409 0.42955C 2.96743 -0.143917 2.0405 -0.14245 1.46703 0.42955Z"/>
<path id="path6_fill" d="M 1.46703 0.42955L 0.430101 1.46648C -0.143366 2.03995 -0.143366 2.96688 0.430101 3.54035C 0.716101 3.82635 1.09157 3.97009 1.46703 3.97009C 1.8425 3.97009 2.21797 3.82635 2.50397 3.54035L 3.5409 2.50342C 4.11437 1.92995 4.11437 1.00302 3.5409 0.42955C 2.96743 -0.143917 2.03903 -0.14245 1.46703 0.42955Z"/>
<path id="path7_fill" d="M 2.50397 0.4301C 1.9305 -0.143367 1.00356 -0.143367 0.430097 0.4301C -0.143369 1.00357 -0.143369 1.9305 0.430097 2.50397L 1.46703 3.5409C 1.75303 3.8269 2.1285 3.97064 2.50397 3.97064C 2.87943 3.97064 3.2549 3.8269 3.5409 3.5409C 4.11437 2.96743 4.11437 2.0405 3.5409 1.46703L 2.50397 0.4301Z"/>
<path id="path8_fill" d="M 2.50397 0.4301C 1.9305 -0.143367 1.00357 -0.143367 0.430101 0.4301C -0.143366 1.00357 -0.143366 1.9305 0.430101 2.50397L 1.46703 3.5409C 1.75303 3.8269 2.1285 3.97063 2.50397 3.97063C 2.87943 3.97063 3.2549 3.8269 3.5409 3.5409C 4.11437 2.96743 4.11437 2.0405 3.5409 1.46703L 2.50397 0.4301Z"/>
</defs>
</svg>
