<svg width="162" height="162" viewBox="0 0 162 162" version="1.1" xmlns="http://www.w3.org/2000/svg" xmlns:xlink="http://www.w3.org/1999/xlink">
<title>Group</title>
<desc>Created using Figma</desc>
<g id="Canvas" transform="translate(1615 18)">
<g id="Group">
<g id="Group">
<g id="Vector">
<use xlink:href="#path0_fill" transform="translate(-1615 -18)" fill="#13988A"/>
</g>
</g>
</g>
</g>
<defs>
<path id="path0_fill" d="M 156.533 78.3C 155.073 38.6961 123.304 6.92685 83.7 5.4675L 83.7 0L 78.3 0L 78.3 5.4675C 38.6961 6.92685 6.92685 38.6961 5.4675 78.3L 0 78.3L 0 83.7L 5.4675 83.7C 6.92685 123.304 38.6961 155.073 78.3 156.533L 78.3 162L 83.7 162L 83.7 156.533C 123.304 155.073 155.073 123.304 156.533 83.7L 162 83.7L 162 78.3L 156.533 78.3ZM 23.7141 121.5C 21.9402 118.998 20.3323 116.382 18.9 113.67L 18.9 103.41C 18.9 98.4893 22.8892 94.5 27.81 94.5L 33.8121 94.5L 29.8944 104.296C 29.4931 105.299 29.729 106.445 30.4938 107.209L 35.8938 112.609C 36.9482 113.663 38.6572 113.663 39.7116 112.609L 45.1116 107.209C 45.8764 106.445 46.1123 105.299 45.711 104.296L 41.7879 94.5L 47.79 94.5C 52.7108 94.5 56.7 98.4893 56.7 103.41L 56.7 121.5L 23.7141 121.5ZM 41.5233 71.2638L 51.1731 77.0553C 50.0904 83.6649 41.9445 89.1 37.8 89.1C 31.778 88.0743 26.7685 83.8985 24.6753 78.1596C 29.2977 77.7789 37.6434 76.3776 41.5233 71.2638ZM 24.4488 72.7434C 25.1731 63.695 29.431 59.4 37.8 59.4C 45.4626 59.4 49.68 63.0234 50.8869 70.5834L 41.8905 65.1834C 40.6117 64.4163 38.9532 64.831 38.1861 66.1098C 38.0849 66.2786 38.0025 66.4575 37.9404 66.6441C 36.5742 70.74 29.1981 72.2925 24.4488 72.7434ZM 40.0302 104.649L 37.8 106.882L 35.5698 104.649L 37.8 99.0684L 40.0302 104.649ZM 83.7 151.132L 83.7 145.8L 78.3 145.8L 78.3 151.132C 58.8829 150.388 40.6482 141.611 27.9531 126.9L 59.4 126.9C 60.8911 126.9 62.1 125.691 62.1 124.2L 62.1 110.7L 99.9 110.7L 99.9 124.2C 99.9 125.691 101.109 126.9 102.6 126.9L 134.047 126.9C 121.352 141.611 103.117 150.388 83.7 151.132ZM 84.7233 55.0638L 94.3731 60.8553C 93.2904 67.4649 85.1445 72.9 81 72.9C 74.978 71.8743 69.9685 67.6984 67.8753 61.9596C 72.4977 61.5789 80.8434 60.1776 84.7233 55.0638ZM 67.6488 56.5434C 68.3731 47.495 72.631 43.2 81 43.2C 88.6626 43.2 92.88 46.8234 94.0869 54.3834L 85.0905 48.9834C 83.8117 48.2163 82.1532 48.6311 81.3861 49.9098C 81.2849 50.0786 81.2025 50.2575 81.1404 50.4441C 79.7742 54.54 72.3981 56.0925 67.6488 56.5434ZM 83.2302 88.4493L 81 90.6822L 78.7698 88.4493L 81 82.8684L 83.2302 88.4493ZM 77.0121 78.3L 73.0944 88.0956C 72.6931 89.099 72.929 90.2451 73.6938 91.0089L 79.0938 96.4089C 80.1482 97.4629 81.8573 97.4629 82.9116 96.4089L 88.3116 91.0089C 89.0764 90.2451 89.3123 89.099 88.911 88.0956L 84.9879 78.3L 90.99 78.3C 95.9108 78.3 99.9 82.2892 99.9 87.21L 99.9 105.3L 62.1 105.3L 62.1 87.21C 62.1 82.2892 66.0892 78.3 71.01 78.3L 77.0121 78.3ZM 143.1 113.67C 141.668 116.382 140.06 118.998 138.286 121.5L 105.3 121.5L 105.3 103.41C 105.3 98.4893 109.289 94.5 114.21 94.5L 120.212 94.5L 116.294 104.296C 115.893 105.299 116.129 106.445 116.894 107.209L 122.294 112.609C 123.348 113.663 125.057 113.663 126.112 112.609L 131.512 107.209C 132.276 106.445 132.512 105.299 132.111 104.296L 128.188 94.5L 134.19 94.5C 139.111 94.5 143.1 98.4893 143.1 103.41L 143.1 113.67ZM 127.923 71.2638L 137.573 77.0553C 136.49 83.6649 128.344 89.1 124.2 89.1C 118.178 88.0743 113.168 83.8985 111.075 78.1596C 115.698 77.7789 124.043 76.3776 127.923 71.2638ZM 110.849 72.7434C 111.573 63.695 115.831 59.4 124.2 59.4C 131.863 59.4 136.08 63.0234 137.287 70.5834L 128.29 65.1834C 127.012 64.4163 125.353 64.831 124.586 66.1098C 124.485 66.2786 124.402 66.4575 124.34 66.6441C 122.974 70.74 115.598 72.2925 110.849 72.7434ZM 126.43 104.649L 124.2 106.882L 121.97 104.649L 124.2 99.0684L 126.43 104.649ZM 151.132 83.7C 150.913 89.5715 149.953 95.392 148.276 101.023C 147.25 94.799 142.242 89.9971 135.98 89.2323C 140.194 85.916 142.786 80.9534 143.1 75.6C 143.1 57.7476 132.821 54 124.2 54C 115.579 54 105.3 57.7476 105.3 75.6C 105.614 80.9534 108.206 85.916 112.42 89.2323C 110.223 89.503 108.119 90.2812 106.275 91.5057C 105.932 91.7352 105.619 91.9917 105.3 92.2482L 105.3 87.21C 105.315 79.9956 99.9402 73.9064 92.7801 73.0242C 96.9921 69.7096 99.5838 64.7504 99.9 59.4C 99.9 41.5476 89.6211 37.8 81 37.8C 72.3789 37.8 62.1 41.5476 62.1 59.4C 62.4139 64.7534 65.0059 69.716 69.2199 73.0323C 62.0629 73.9142 56.6895 79.9986 56.7 87.21L 56.7 92.2374C 56.3814 91.9836 56.0682 91.7244 55.7253 91.4949C 53.8812 90.2705 51.7772 89.4918 49.5801 89.2215C 53.7914 85.9076 56.3831 80.9497 56.7 75.6C 56.7 57.7476 46.4211 54 37.8 54C 29.1789 54 18.9 57.7476 18.9 75.6C 19.2139 80.9534 21.8059 85.916 26.0199 89.2323C 19.7583 89.9971 14.7504 94.799 13.7241 101.023C 12.0471 95.392 11.0872 89.5715 10.8675 83.7L 16.2 83.7L 16.2 78.3L 10.8675 78.3C 12.3188 41.6762 41.6762 12.3188 78.3 10.8675L 78.3 16.2L 83.7 16.2L 83.7 10.8675C 120.324 12.3188 149.681 41.6762 151.132 78.3L 145.8 78.3L 145.8 83.7L 151.132 83.7Z"/>
</defs>
</svg>
