<svg width="48" height="46" viewBox="0 0 48 46" version="1.1" xmlns="http://www.w3.org/2000/svg" xmlns:xlink="http://www.w3.org/1999/xlink">
<title>Group</title>
<desc>Created using Figma</desc>
<g id="Canvas" transform="translate(1227 -2953)">
<g id="Group">
<g id="Canvas">
<g id="Google +">
<g id="back">
<g id="Vector">
<use xlink:href="#path0_fill" transform="translate(-1226.54 2953)" fill="#DC4E41"/>
</g>
</g>
<g id="Combined Shape">
<g id="Vector">
<use xlink:href="#path1_fill" transform="translate(-1214.83 2969.1)" fill="#FFFFFF"/>
</g>
</g>
</g>
</g>
</g>
</g>
<defs>
<path id="path0_fill" fill-rule="evenodd" d="M 0 23C 0 10.2975 10.4877 0 23.4248 0C 36.3619 0 46.8496 10.2975 46.8496 23C 46.8496 35.7025 36.3619 46 23.4248 46C 10.4877 46 0 35.7025 0 23Z"/>
<path id="path1_fill" fill-rule="evenodd" d="M 7.45331 8.74L 7.45331 6.24283L 14.4914 6.24283C 14.5553 6.60698 14.6085 6.97122 14.6085 7.44982C 14.6085 11.6118 11.7549 14.5667 7.45331 14.5667C 3.33262 14.5667 0 11.31 0 7.28333C 0 3.25665 3.33262 0 7.45331 0C 9.46581 0 11.1481 0.717907 12.4471 1.90403L 10.4241 3.80816C 9.87035 3.2879 8.90135 2.68445 7.45331 2.68445C 4.90857 2.68445 2.83221 4.74459 2.83221 7.28333C 2.83221 9.82207 4.90857 11.8822 7.45331 11.8822C 10.4028 11.8822 11.5102 9.81172 11.6804 8.74L 7.45331 8.74ZM 21.2953 6.24283L 23.4248 6.24283L 23.4248 8.32385L 21.2953 8.32385L 21.2953 10.4047L 19.1657 10.4047L 19.1657 8.32385L 17.0362 8.32385L 17.0362 6.24283L 19.1657 6.24283L 19.1657 4.16192L 21.2953 4.16192L 21.2953 6.24283Z"/>
</defs>
</svg>
