<svg width="48" height="46" viewBox="0 0 48 46" version="1.1" xmlns="http://www.w3.org/2000/svg" xmlns:xlink="http://www.w3.org/1999/xlink">
<title>Group</title>
<desc>Created using Figma</desc>
<g id="Canvas" transform="translate(1342 -2953)">
<g id="Group">
<g id="Canvas">
<g id="LinkedIN">
<g id="back">
<g id="Vector">
<use xlink:href="#path0_fill" transform="translate(-1341.63 2953)" fill="#0077B5"/>
</g>
</g>
<g id="Shape">
<g id="Vector">
<use xlink:href="#path1_fill" transform="translate(-1330.69 2964.5)" fill="#FFFFFF"/>
</g>
</g>
</g>
</g>
</g>
</g>
<defs>
<path id="path0_fill" fill-rule="evenodd" d="M 0 23C 0 10.2975 10.4877 0 23.4248 0C 36.3619 0 46.8496 10.2975 46.8496 23C 46.8496 35.7025 36.3619 46 23.4248 46C 10.4877 46 0 35.7025 0 23Z"/>
<path id="path1_fill" fill-rule="evenodd" d="M 5.97211 2.70505C 5.9376 1.16956 4.81936 0 3.00321 0C 1.18725 0 0 1.16956 0 2.70505C 0 4.20881 1.15218 5.41205 2.93439 5.41205L 2.96832 5.41205C 4.81936 5.41205 5.97211 4.20881 5.97211 2.70505ZM 5.62248 7.54959L 0.31397 7.54959L 0.31397 23.2104L 5.62248 23.2104L 5.62248 7.54959ZM 18.655 7.18189C 22.1483 7.18189 24.7672 9.42065 24.7672 14.2309L 24.767 23.2104L 19.4587 23.2104L 19.4587 14.8319C 19.4587 12.7274 18.6905 11.2913 16.7687 11.2913C 15.3022 11.2913 14.4285 12.2595 14.045 13.1945C 13.9045 13.5296 13.8701 13.9965 13.8701 14.4645L 13.8701 23.2108L 8.56091 23.2108C 8.56091 23.2108 8.63087 9.01953 8.56091 7.55006L 13.8701 7.55006L 13.8701 9.76825C 14.5748 8.7019 15.8365 7.18189 18.655 7.18189Z"/>
</defs>
</svg>
