<svg width="692" height="113" viewBox="0 0 692 113" version="1.1" xmlns="http://www.w3.org/2000/svg" xmlns:xlink="http://www.w3.org/1999/xlink">
<title>Group 3</title>
<desc>Created using Figma</desc>
<g id="Canvas" transform="translate(1235 -1753)">
<g id="Group 3">
<g id="Rectangle 21.1">
<use xlink:href="#path0_fill" transform="translate(-1126 1810)" fill="#C4C4C4"/>
</g>
<g id="Ellipse">
<use xlink:href="#path1_fill" transform="translate(-1235 1753)" fill="#4F4F4F"/>
</g>
<g id="2">
<use xlink:href="#path2_fill" transform="translate(-1198 1772)" fill="#FFFFFF"/>
</g>
</g>
</g>
<defs>
<path id="path0_fill" d="M 0 0L 583 0L 583 5L 0 5L 0 0Z"/>
<path id="path1_fill" d="M 113 56.5C 113 87.7041 87.7041 113 56.5 113C 25.2959 113 0 87.7041 0 56.5C 0 25.2959 25.2959 0 56.5 0C 87.7041 0 113 25.2959 113 56.5Z"/>
<path id="path2_fill" d="M 27.4404 49.3525C 27.972 49.3525 28.3937 49.5083 28.7054 49.82C 29.017 50.1317 29.1729 50.535 29.1729 51.03L 29.1729 54L 2.88285 54L 2.88285 52.3225C 2.88285 51.9742 2.95618 51.6167 3.10285 51.25C 3.24952 50.8833 3.47868 50.5442 3.79035 50.2325L 16.4129 37.555C 17.4579 36.4917 18.4112 35.4742 19.2729 34.5025C 20.1345 33.5125 20.8679 32.5225 21.4729 31.5325C 22.0779 30.5425 22.5454 29.5433 22.8754 28.535C 23.2054 27.5083 23.3704 26.4175 23.3704 25.2625C 23.3704 24.1075 23.187 23.0992 22.8204 22.2375C 22.4537 21.3575 21.9495 20.6333 21.3079 20.065C 20.6845 19.4967 19.942 19.075 19.0804 18.8C 18.2187 18.5067 17.2929 18.36 16.3029 18.36C 15.2945 18.36 14.3687 18.5067 13.5254 18.8C 12.682 19.0933 11.9304 19.5058 11.2704 20.0375C 10.6287 20.5508 10.0879 21.165 9.64785 21.88C 9.20785 22.595 8.89618 23.3833 8.71285 24.245C 8.49285 24.8867 8.19035 25.3175 7.80535 25.5375C 7.43869 25.7392 6.91619 25.7942 6.23785 25.7025L 3.68035 25.2625C 3.93702 23.4658 4.43202 21.88 5.16535 20.505C 5.91702 19.1117 6.85202 17.9475 7.97035 17.0125C 9.10702 16.0775 10.3995 15.3717 11.8479 14.895C 13.2962 14.4 14.8637 14.1525 16.5504 14.1525C 18.2187 14.1525 19.777 14.4 21.2254 14.895C 22.6737 15.39 23.9295 16.1142 24.9929 17.0675C 26.0562 18.0025 26.8904 19.1483 27.4954 20.505C 28.1004 21.8617 28.4029 23.4017 28.4029 25.125C 28.4029 26.5917 28.1829 27.9575 27.7429 29.2225C 27.3029 30.4692 26.707 31.6608 25.9554 32.7975C 25.2037 33.9342 24.3329 35.0433 23.3429 36.125C 22.3712 37.2067 21.3354 38.2975 20.2354 39.3975L 9.84035 50.0125C 10.5737 49.8108 11.3162 49.655 12.0679 49.545C 12.8195 49.4167 13.5437 49.3525 14.2404 49.3525L 27.4404 49.3525Z"/>
</defs>
</svg>
