<svg width="701" height="113" viewBox="0 0 701 113" version="1.1" xmlns="http://www.w3.org/2000/svg" xmlns:xlink="http://www.w3.org/1999/xlink">
<title>Group 3</title>
<desc>Created using Figma</desc>
<g id="Canvas" transform="translate(1935 -2439)">
<g id="Group 3">
<g id="Ellipse">
<use xlink:href="#path0_fill" transform="translate(-1935 2439)" fill="#4F4F4F"/>
</g>
<g id="Rectangle 21">
<use xlink:href="#path1_fill" transform="translate(-1822 2496)" fill="#C4C4C4"/>
</g>
<g id="3">
<use xlink:href="#path2_fill" transform="translate(-1898 2459)" fill="#FFFFFF"/>
</g>
</g>
</g>
<defs>
<path id="path0_fill" d="M 113 56.5C 113 87.7041 87.7041 113 56.5 113C 25.2959 113 0 87.7041 0 56.5C 0 25.2959 25.2959 0 56.5 0C 87.7041 0 113 25.2959 113 56.5Z"/>
<path id="path1_fill" d="M 0 0L 588 0L 588 5L 0 5L 0 0Z"/>
<path id="path2_fill" d="M 3.87285 25.2625C 4.12952 23.4658 4.62452 21.88 5.35785 20.505C 6.09119 19.1117 7.01702 17.9475 8.13535 17.0125C 9.27202 16.0775 10.5645 15.3717 12.0129 14.895C 13.4795 14.4 15.0562 14.1525 16.7429 14.1525C 18.4112 14.1525 19.9512 14.3908 21.3629 14.8675C 22.7745 15.3442 23.9845 16.0225 24.9929 16.9025C 26.0195 17.7825 26.817 18.8458 27.3854 20.0925C 27.9537 21.3392 28.2379 22.7233 28.2379 24.245C 28.2379 25.4917 28.0729 26.61 27.7429 27.6C 27.4312 28.5717 26.9729 29.4242 26.3679 30.1575C 25.7812 30.8908 25.0662 31.5142 24.2229 32.0275C 23.3795 32.5408 22.4354 32.9625 21.3904 33.2925C 23.957 33.9525 25.882 35.0892 27.1654 36.7025C 28.467 38.2975 29.1179 40.2958 29.1179 42.6975C 29.1179 44.5125 28.7695 46.1442 28.0729 47.5925C 27.3945 49.0408 26.4595 50.2783 25.2679 51.305C 24.0762 52.3133 22.6829 53.0925 21.0879 53.6425C 19.5112 54.1742 17.8154 54.44 16.0004 54.44C 13.9104 54.44 12.1229 54.1833 10.6379 53.67C 9.15285 53.1383 7.89702 52.4142 6.87035 51.4975C 5.84368 50.5808 5.00035 49.4992 4.34035 48.2525C 3.68035 46.9875 3.12118 45.6217 2.66285 44.155L 4.78035 43.275C 5.33035 43.0367 5.86202 42.9725 6.37535 43.0825C 6.90702 43.1925 7.29202 43.495 7.53035 43.99C 7.76869 44.5033 8.06202 45.1175 8.41035 45.8325C 8.77702 46.5475 9.27202 47.235 9.89535 47.895C 10.5187 48.555 11.307 49.1142 12.2604 49.5725C 13.232 50.0308 14.4604 50.26 15.9454 50.26C 17.3204 50.26 18.5212 50.04 19.5479 49.6C 20.5929 49.1417 21.4545 48.555 22.1329 47.84C 22.8295 47.125 23.352 46.3275 23.7004 45.4475C 24.0487 44.5675 24.2229 43.6967 24.2229 42.835C 24.2229 41.7717 24.0854 40.8 23.8104 39.92C 23.5354 39.04 23.022 38.2792 22.2704 37.6375C 21.5187 36.9958 20.4829 36.4917 19.1629 36.125C 17.8612 35.7583 16.1837 35.575 14.1304 35.575L 14.1304 32.0275C 15.817 32.0092 17.247 31.8258 18.4204 31.4775C 19.612 31.1292 20.5745 30.6525 21.3079 30.0475C 22.0595 29.4425 22.6004 28.7183 22.9304 27.875C 23.2787 27.0317 23.4529 26.0967 23.4529 25.07C 23.4529 23.9333 23.2695 22.9433 22.9029 22.1C 22.5545 21.2567 22.0687 20.56 21.4454 20.01C 20.822 19.46 20.0795 19.0475 19.2179 18.7725C 18.3745 18.4975 17.4579 18.36 16.4679 18.36C 15.4779 18.36 14.552 18.5067 13.6904 18.8C 12.847 19.0933 12.0954 19.5058 11.4354 20.0375C 10.7937 20.5508 10.2529 21.165 9.81285 21.88C 9.37285 22.595 9.06118 23.3833 8.87785 24.245C 8.63952 24.8867 8.33702 25.3175 7.97035 25.5375C 7.62202 25.7392 7.10869 25.7942 6.43035 25.7025L 3.87285 25.2625Z"/>
</defs>
</svg>
