<svg width="34" height="34" viewBox="0 0 34 34" version="1.1" xmlns="http://www.w3.org/2000/svg" xmlns:xlink="http://www.w3.org/1999/xlink">
<title>Group</title>
<desc>Created using Figma</desc>
<g id="Canvas" transform="translate(3456 -3214)">
<g id="Group">
<g id="Group">
<g id="Group">
<g id="Vector">
<use xlink:href="#path0_fill" transform="translate(-3456 3214)" fill="#FFFAFA"/>
</g>
</g>
</g>
</g>
</g>
<defs>
<path id="path0_fill" d="M 33.2378 26.8924L 27.987 21.6291C 26.9412 20.5851 25.2092 20.6168 24.1269 21.7019L 21.4815 24.3527C 21.3144 24.2604 21.1414 24.164 20.9595 24.0617C 19.289 23.1339 17.0026 21.8624 14.5967 19.4492C 12.1836 17.031 10.9138 14.7359 9.98534 13.0605C 9.88736 12.883 9.79349 12.7119 9.7008 12.5494L 11.4762 10.7726L 12.3491 9.89665C 13.433 8.80995 13.4629 7.07456 12.4195 6.02751L 7.16874 0.763668C 6.12533 -0.281915 4.39259 -0.250195 3.30864 0.836506L 1.82879 2.32822L 1.86923 2.36846C 1.37302 3.00305 0.958369 3.73496 0.649799 4.52424C 0.365356 5.27553 0.188263 5.99246 0.107286 6.71086C -0.586044 12.4717 2.04056 17.7368 9.16883 24.8813C 19.0223 34.7564 26.9628 34.0103 27.3054 33.9739C 28.0515 33.8845 28.7665 33.7059 29.4931 33.423C 30.2738 33.1174 31.0036 32.7024 31.6363 32.2061L 31.6687 32.2349L 33.1678 30.7636C 34.2495 29.6771 34.2807 27.9411 33.2378 26.8924Z"/>
</defs>
</svg>
