<svg width="167" height="167" viewBox="0 0 167 167" version="1.1" xmlns="http://www.w3.org/2000/svg" xmlns:xlink="http://www.w3.org/1999/xlink">
<title>Group</title>
<desc>Created using Figma</desc>
<g id="Canvas" transform="translate(1014 14)">
<g id="Group">
<g id="Group">
<g id="Group">
<g id="Vector">
<use xlink:href="#path0_fill" transform="translate(-992.452 50.6452)" fill="#13988A"/>
</g>
<g id="Vector">
<use xlink:href="#path1_fill" transform="translate(-1014 -14)" fill="#13988A"/>
</g>
<g id="Vector">
<use xlink:href="#path2_fill" transform="translate(-941.274 61.4194)" fill="#13988A"/>
</g>
<g id="Vector">
<use xlink:href="#path3_fill" transform="translate(-992.452 61.4194)" fill="#13988A"/>
</g>
</g>
</g>
</g>
</g>
<defs>
<path id="path0_fill" d="M 56.5645 0L 0 0L 0 5.3871L 56.5645 5.3871L 56.5645 0Z"/>
<path id="path1_fill" d="M 153.532 32.3226L 118.516 32.3226L 118.516 0L 10.7742 0L 10.7742 32.5946C 4.6356 33.8471 0 39.2881 0 45.7903L 0 137.371C 0 144.797 6.04163 150.839 13.4677 150.839L 37.7097 150.839L 37.7097 161.613L 26.9355 161.613L 26.9355 167L 140.065 167L 140.065 161.613L 129.29 161.613L 129.29 150.839L 153.532 150.839C 160.958 150.839 167 144.797 167 137.371L 167 45.7903C 167 38.3642 160.958 32.3226 153.532 32.3226ZM 121.21 51.1774C 121.21 58.6035 115.168 64.6452 107.742 64.6452C 100.316 64.6452 94.2742 58.6035 94.2742 51.1774C 94.2742 43.7513 100.316 37.7097 107.742 37.7097C 115.168 37.7097 121.21 43.7513 121.21 51.1774ZM 91.2817 86.1936C 90.2904 85.2239 89.1861 84.3727 87.9982 83.6374L 97.3125 66.8727C 100.302 68.866 103.887 70.0323 107.742 70.0323C 109.614 70.0323 111.421 69.7494 113.129 69.2377L 113.129 86.1936L 91.2817 86.1936ZM 91.5806 99.6613C 91.5806 107.087 85.539 113.129 78.1129 113.129C 70.6868 113.129 64.6452 107.087 64.6452 99.6613C 64.6452 92.2352 70.6868 86.1936 78.1129 86.1936C 85.539 86.1936 91.5806 92.2352 91.5806 99.6613ZM 89.1026 53.871L 26.9355 53.871L 26.9355 16.1613L 102.355 16.1613L 102.355 33.1172C 94.5759 35.4417 88.8871 42.655 88.8871 51.1774C 88.8871 52.0932 88.976 52.9875 89.1026 53.871ZM 16.1613 5.3871L 113.129 5.3871L 113.129 33.1172C 111.421 32.6054 109.614 32.3226 107.742 32.3226L 107.742 10.7742L 21.5484 10.7742L 21.5484 59.2581L 90.7322 59.2581C 91.4029 60.6641 92.2244 61.9866 93.2076 63.1745L 83.0367 81.4825C 81.4637 81.0543 79.8179 80.8064 78.1129 80.8064C 72.9898 80.8064 68.3434 82.867 64.9441 86.1936L 16.1613 86.1936L 16.1613 5.3871ZM 123.903 161.613L 43.0968 161.613L 43.0968 150.839L 123.903 150.839L 123.903 161.613ZM 161.613 137.371C 161.613 141.826 157.987 145.452 153.532 145.452L 13.4677 145.452C 9.01261 145.452 5.3871 141.826 5.3871 137.371L 5.3871 134.677L 161.613 134.677L 161.613 137.371ZM 161.613 129.29L 5.3871 129.29L 5.3871 45.7903C 5.3871 42.2833 7.64698 39.3204 10.7742 38.2053L 10.7742 91.5806L 61.1031 91.5806C 59.9341 94.0345 59.2581 96.7684 59.2581 99.6613C 59.2581 110.056 67.7158 118.516 78.1129 118.516C 88.51 118.516 96.9677 110.056 96.9677 99.6613C 96.9677 96.7684 96.2917 94.0345 95.1227 91.5806L 118.516 91.5806L 118.516 74.0376L 125.422 85.0892C 121.21 88.5504 118.516 93.7974 118.516 99.6613C 118.516 110.056 126.974 118.516 137.371 118.516C 147.768 118.516 156.226 110.056 156.226 99.6613C 156.226 89.2669 147.768 80.8064 137.371 80.8064C 134.769 80.8064 132.288 81.3371 130.031 82.2933L 119.691 65.7495C 123.903 62.2883 126.597 57.0413 126.597 51.1774C 126.597 45.9035 124.415 41.1359 120.911 37.7097L 153.532 37.7097C 157.987 37.7097 161.613 41.3352 161.613 45.7903L 161.613 129.29ZM 137.371 86.1936C 144.797 86.1936 150.839 92.2352 150.839 99.6613C 150.839 107.087 144.797 113.129 137.371 113.129C 129.945 113.129 123.903 107.087 123.903 99.6613C 123.903 92.2352 129.945 86.1936 137.371 86.1936Z"/>
<path id="path2_fill" d="M 5.3871 0L 0 0L 0 5.3871L 5.3871 5.3871L 5.3871 0Z"/>
<path id="path3_fill" d="M 45.7903 0L 0 0L 0 5.3871L 45.7903 5.3871L 45.7903 0Z"/>
</defs>
</svg>
