<svg width="94" height="85" viewBox="0 0 94 85" version="1.1" xmlns="http://www.w3.org/2000/svg" xmlns:xlink="http://www.w3.org/1999/xlink">
<title>Group</title>
<desc>Created using Figma</desc>
<g id="Canvas" transform="translate(854 -2325)">
<g id="Group">
<g id="Vector">
<use xlink:href="#path0_fill" transform="matrix(-1 0 0 1 -760 2325)" fill="#13988A"/>
</g>
</g>
</g>
<defs>
<path id="path0_fill" d="M 82.4062 0L 11.5939 0C 5.21138 0 0 5.22654 0 11.6713L 0 56.8828C 0 63.3079 5.19186 68.5541 11.5939 68.5541L 44.365 68.5541L 44.365 79.6949L 28.0282 79.6949C 26.5644 79.6949 25.3933 80.8738 25.3933 82.3474C 25.3933 83.8211 26.5644 85 28.0282 85L 65.9718 85C 67.4356 85 68.6067 83.8211 68.6067 82.3474C 68.6067 80.8738 67.4356 79.6949 65.9718 79.6949L 49.635 79.6949L 49.635 68.5541L 82.4062 68.5541C 88.7886 68.5541 94 63.3276 94 56.8828L 94 11.6713C 94 5.22654 88.8081 0 82.4062 0ZM 11.5939 5.30513L 82.4257 5.30513C 85.8999 5.30513 88.7496 8.15418 88.7496 11.6713L 88.7496 49.4556L 5.26993 49.4556L 5.26993 11.6713C 5.26993 8.15418 8.10008 5.30513 11.5939 5.30513ZM 82.4062 63.249L 11.5939 63.249C 8.1196 63.249 5.26993 60.3999 5.26993 56.8828L 5.26993 54.7607L 88.7301 54.7607L 88.7301 56.8828C 88.7301 60.3803 85.8999 63.249 82.4062 63.249Z"/>
</defs>
</svg>
